<?xml version="1.0" standalone="no"?>
<!DOCTYPE svg PUBLIC "-//W3C//DTD SVG 20010904//EN"
 "http://www.w3.org/TR/2001/REC-SVG-20010904/DTD/svg10.dtd">
<svg version="1.0" xmlns="http://www.w3.org/2000/svg"
 width="512.000000pt" height="512.000000pt" viewBox="0 0 512.000000 512.000000"
 preserveAspectRatio="xMidYMid meet">
<metadata>
Created by potrace 1.11, written by Peter Selinger 2001-2013
</metadata>
<g transform="translate(0.000000,512.000000) scale(0.100000,-0.100000)"
fill="#000000" stroke="none">
<path d="M2440 4654 c-30 -6 -107 -24 -170 -39 -63 -15 -126 -29 -140 -31 -14
-3 -68 -16 -120 -29 -52 -13 -106 -26 -120 -28 -14 -3 -115 -26 -225 -52 -110
-26 -207 -48 -215 -50 -8 -2 -76 -17 -150 -35 -142 -33 -150 -35 -190 -44 -14
-3 -72 -17 -130 -30 -58 -14 -116 -27 -130 -30 -14 -3 -52 -12 -85 -19 -33 -8
-123 -29 -200 -46 -77 -18 -151 -37 -165 -44 -28 -14 -38 -48 -18 -64 7 -6
141 -59 298 -118 157 -59 398 -150 535 -201 138 -52 266 -101 285 -109 19 -7
91 -35 160 -61 69 -25 136 -51 150 -57 14 -6 27 -11 30 -12 19 -5 60 -19 85
-30 17 -7 112 -43 212 -81 215 -79 146 -85 558 45 269 85 393 124 405 126 3 0
41 13 85 27 70 23 166 53 470 148 39 12 220 68 402 125 322 101 334 104 385
95 72 -14 127 -54 158 -115 21 -43 25 -63 24 -140 -1 -125 -27 -190 -108 -270
l-61 -61 -300 -115 -300 -115 1 -29 c1 -26 52 -234 59 -243 2 -2 100 37 219
87 118 50 232 93 253 95 89 11 185 -44 218 -126 48 -118 12 -300 -78 -392 -49
-50 -84 -71 -195 -117 l-101 -42 24 -19 c13 -10 38 -23 54 -29 61 -21 88 -107
55 -170 -16 -32 -84 -70 -113 -64 -9 1 -42 6 -73 9 -31 4 -83 11 -115 16 -32
6 -72 10 -89 10 l-31 0 -1 -109 -1 -110 67 25 c37 14 124 50 194 79 225 96
277 106 351 68 82 -42 119 -105 123 -214 5 -124 -35 -230 -116 -303 -52 -47
-67 -54 -425 -201 -170 -70 -323 -133 -340 -140 -16 -7 -122 -51 -235 -98
-113 -46 -410 -169 -660 -273 -544 -225 -504 -218 -684 -131 -65 31 -119 57
-121 57 -2 0 -65 30 -142 66 -76 36 -176 84 -223 106 -47 23 -121 58 -165 78
-155 72 -531 249 -640 300 -231 109 -254 120 -262 120 -4 0 -16 7 -26 14 -17
13 -15 17 34 63 60 54 140 139 151 157 11 19 -485 -171 -499 -191 -25 -33 -16
-42 107 -106 58 -30 191 -98 295 -152 105 -54 249 -128 320 -165 72 -37 238
-123 370 -190 132 -68 242 -127 243 -132 2 -4 10 -8 18 -8 7 0 30 -9 51 -21
20 -11 98 -52 172 -90 75 -38 143 -74 151 -79 8 -5 29 -15 45 -23 17 -8 76
-37 133 -66 122 -63 155 -66 257 -23 79 33 353 152 430 186 28 13 199 87 380
166 182 79 353 153 380 166 28 12 136 59 240 104 105 45 218 95 253 111 35 16
65 29 67 29 3 0 28 11 57 24 29 13 103 45 163 71 61 26 128 60 150 75 105 72
200 202 237 323 17 57 19 85 15 160 -6 104 -9 120 -35 197 -36 110 -105 191
-216 252 -28 15 -46 28 -39 28 22 0 135 125 170 188 20 35 44 89 53 120 42
134 8 351 -72 470 -16 23 -26 47 -23 52 3 6 -1 7 -9 4 -9 -4 -18 0 -22 9 -3 8
-23 27 -45 41 l-39 26 57 61 c113 118 166 234 170 374 5 210 -80 386 -230 469
-55 31 -179 70 -262 83 -16 2 -55 11 -85 18 -30 8 -68 16 -85 19 -16 3 -39 8
-50 10 -40 10 -162 37 -255 57 -52 11 -102 22 -110 24 -13 3 -181 38 -236 49
-10 3 -62 14 -114 26 -52 12 -113 25 -135 29 -33 7 -345 75 -395 86 -281 64
-343 73 -410 59z"/>
<path d="M715 3569 c-22 -11 -105 -49 -185 -86 -208 -95 -223 -104 -241 -141
-13 -26 -15 -41 -7 -71 9 -34 17 -42 66 -67 72 -35 376 -182 507 -244 55 -26
163 -78 240 -115 77 -37 185 -89 240 -115 55 -26 172 -83 260 -125 245 -118
560 -268 625 -297 75 -34 156 -28 275 20 184 73 746 310 753 316 2 3 -106 256
-114 264 -3 4 -84 -26 -304 -111 -514 -199 -474 -190 -610 -132 -47 20 -101
44 -120 52 -19 9 -37 17 -40 18 -13 4 -291 125 -1035 447 -126 55 -273 118
-325 140 -144 61 -137 50 -68 115 159 150 178 180 83 132z"/>
<path d="M3490 3413 c-41 -19 -127 -57 -190 -85 -63 -27 -136 -58 -161 -70
l-46 -20 93 -182 c50 -99 109 -221 129 -271 21 -49 46 -108 55 -130 17 -39 39
-108 75 -230 22 -77 56 -144 111 -222 44 -62 139 -153 160 -153 6 0 17 -7 24
-15 20 -24 68 -45 72 -31 3 6 4 81 3 168 l-1 156 30 -3 c60 -6 142 -16 196
-25 30 -5 75 -12 100 -15 25 -3 59 -8 75 -11 25 -5 17 3 -40 44 -205 145 -336
377 -434 769 -17 67 -42 150 -57 185 -27 67 -92 170 -109 174 -5 1 -44 -14
-85 -33z"/>
<path d="M769 2695 c-5 -4 -219 -82 -249 -90 -8 -2 -50 -18 -93 -34 -43 -17
-84 -31 -90 -31 -22 0 -67 -45 -76 -75 -5 -19 -4 -43 3 -64 10 -30 35 -45 361
-210 193 -98 514 -262 715 -364 956 -488 964 -492 1027 -494 56 -1 110 16 308
102 17 7 86 36 155 65 69 28 139 57 155 65 17 7 109 45 205 85 96 39 189 77
205 85 17 7 93 39 170 70 208 84 195 72 123 114 -34 20 -97 71 -141 114 -86
84 -82 82 -162 47 -22 -10 -103 -43 -180 -75 -77 -31 -153 -63 -170 -70 -16
-7 -133 -56 -260 -108 -300 -124 -283 -117 -335 -140 -82 -37 -136 -28 -285
43 -71 34 -161 77 -200 95 -38 18 -108 51 -155 73 -47 22 -157 74 -245 115
-88 41 -221 104 -295 139 -74 36 -164 78 -200 93 -36 16 -72 34 -80 41 -8 6
-25 15 -38 19 -13 4 -89 38 -169 77 -81 38 -157 74 -170 79 -12 5 -23 12 -23
17 0 5 35 42 78 83 96 93 127 127 120 134 -2 3 -7 3 -9 0z"/>
</g>
</svg>
